<svg id="Layer_1" data-name="Layer 1" xmlns="http://www.w3.org/2000/svg" xmlns:xlink="http://www.w3.org/1999/xlink" viewBox="0 0 394.67 384.41">
  <defs>
    <style>
      .cls-1 {
        fill: none;
      }

      .cls-2 {
        clip-path: url(#clip-path);
      }
    </style>
    <clipPath id="clip-path">
      <rect class="cls-1" width="394.8" height="385"/>
    </clipPath>
  </defs>
  <title>extra-active</title>
  <g>
    <g class="cls-2">
      <path d="M379.85,281.65c-30.37-7.64-67.22-18.13-74.82-22-4.27-3.44-26.45-29.79-26.45-29.79l-12.28-70.49c20.55,6.35,26.21,19.39,32.93,44.47A15.14,15.14,0,1,0,328.5,196c-18.64-83.23-107-71-107.23-71-31.1,2.08-57.6-5.73-59.76-9.05-2.38-3.44-12-18.88-13.44-47.1a15.08,15.08,0,0,0-21.35-13,33.11,33.11,0,1,0-24.11,10.5A32.83,32.83,0,0,0,120.56,61a15.17,15.17,0,0,0-2.73,9.4c1.95,37.57,15.68,58.68,19.86,64.25,8.11,10.86,30.33,17.57,54.15,20,0,0.1,0,.18,0,0.29l18.65,89s-4.79,49.23-3.08,61.87c0.7,5.34,2.54,19.5,58.11,73.14a19.58,19.58,0,0,0,27.21-28.18c-19.23-18.6-46.55-51.53-46.55-51.53s1-22.07,2.87-39c0.12-1.62,2.95-2.57,4.16-1.1,3.09,4,22.84,28.4,30.37,33.32,11.71,7.65,59.34,20.33,86.68,27.2a19.19,19.19,0,0,0,4.8.61,19.59,19.59,0,0,0,4.76-38.59h0Zm0,0"/>
    </g>
    <path d="M224.56,118.86a39,39,0,1,0-46.31-30,39,39,0,0,0,46.31,30h0Zm0,0"/>
    <path d="M7,74.36l-7,.1,22.61,95.81,57.34-.07L99.23,74.3ZM72.8,164.92l-2.05-4-2.06,4H63l4.93-9.59-7.32-14.25-7.32,14.25,4.93,9.59H52.44l-2.07-4-2.07,4H42.57l4.94-9.61-7.32-14.25-7.32,14.25L37.81,165H32.09L30,160.92,27.93,165H26.8l-1.45-6.14,1.79-3.49-4.83-9.4-4.86-20.61,2.37,4.61,7.32-14.26-7.32-14.26-5.48,10.68-1.81-7.64L17,95.86,8.64,79.65h5.72l5.46,10.63,5.47-10.64h9.43l5.47,10.65,5.47-10.66h9.42l5.48,10.66L66,79.62h9.4l5.48,10.68L86.41,79.6h5.73L83.78,95.86l4.11,8-1.61,8-5.36-10.43L73.6,115.69l7.32,14.26,2.83-5.52-3.68,18.32-6.47,12.6,2.83,5.51-0.82,4.06H72.8Zm0,0"/>
    <path d="M40.19,101.43l-7.32,14.26,7.32,14.25,7.32-14.25Zm0,0"/>
    <path d="M22.68,135.52L30,149.77l7.32-14.25L30,121.26Zm0,0"/>
    <path d="M43.05,135.52l7.32,14.25,7.32-14.25-7.32-14.26Zm0,0"/>
    <path d="M60.55,101.43l-7.32,14.26,7.32,14.25,7.32-14.25Zm0,0"/>
    <path d="M70.74,121.26l-7.32,14.26,7.32,14.25,7.32-14.25Zm0,0"/>
    <path d="M78.06,95.86L70.74,81.6,63.42,95.86l7.32,14.25Zm0,0"/>
    <path d="M37.33,95.86L30,81.6,22.68,95.86,30,110.11Zm0,0"/>
    <path d="M57.7,95.86L50.37,81.6,43.05,95.86l7.32,14.25Zm0,0"/>
  </g>
</svg>
