<svg id="Layer_1" data-name="Layer 1" xmlns="http://www.w3.org/2000/svg" xmlns:xlink="http://www.w3.org/1999/xlink" viewBox="0 0 23.43 47.48">
  <defs>
    <style>
      .cls-1 {
        fill: none;
      }

      .cls-2 {
        clip-path: url(#clip-path);
      }

      .cls-3 {
        fill: #0e0f0f;
      }
    </style>
    <clipPath id="clip-path" transform="translate(0)">
      <rect class="cls-1" width="24" height="48"/>
    </clipPath>
  </defs>
  <title>lightly-active</title>
  <g>
    <g class="cls-2">
      <path class="cls-3" d="M0.86,41.22a2.72,2.72,0,0,0,.57,3.73,2.68,2.68,0,0,0,3.73-.56,17.11,17.11,0,0,1,4.28-4.55,23.45,23.45,0,0,1-1.5-6.43S2.6,38.26.86,41.22h0Zm0,0" transform="translate(0)"/>
      <path class="cls-3" d="M22.57,18.64a55.23,55.23,0,0,0-10.14-7.28,4.59,4.59,0,0,0-1.33-.69,2.61,2.61,0,0,0-.93-0.2,3.91,3.91,0,0,0-1.47.09,3.79,3.79,0,0,0-2.51,2A51.94,51.94,0,0,0,.36,21.12c-1.68,3,2.93,5.7,4.61,2.69C5.49,22.87,6,21.94,6.6,21Q7.33,26,8.06,30.88a3.13,3.13,0,0,0,.85,1.7A47.47,47.47,0,0,0,13,46.11c1.49,3.09,6.09.39,4.6-2.69a39.51,39.51,0,0,1-3.18-10.21A4.47,4.47,0,0,0,16,28.75Q15.29,23.89,14.57,19a53.41,53.41,0,0,1,4.22,3.39c2.56,2.28,6.35-1.48,3.77-3.77h0Zm0,0" transform="translate(0)"/>
    </g>
    <path class="cls-3" d="M14.43,4.65A4.65,4.65,0,1,1,9.78,0a4.65,4.65,0,0,1,4.65,4.65h0Zm0,0" transform="translate(0)"/>
  </g>
</svg>
