<svg id="Layer_1" data-name="Layer 1" xmlns="http://www.w3.org/2000/svg" xmlns:xlink="http://www.w3.org/1999/xlink" viewBox="0 0 12.99 14.77">
  <defs>
    <style>
      .cls-1 {
        fill: none;
      }

      .cls-2 {
        clip-path: url(#clip-path);
      }

      .cls-3 {
        fill-rule: evenodd;
      }
    </style>
    <clipPath id="clip-path" transform="translate(0)">
      <rect class="cls-1" width="12.96" height="15"/>
    </clipPath>
  </defs>
  <title>moderately-active</title>
  <g>
    <g class="cls-2">
      <path class="cls-3" d="M12.8,4.36A0.55,0.55,0,0,0,12,4.29L10.51,5.57,9.82,3.84a0.68,0.68,0,0,0-.1-0.17A1.51,1.51,0,0,0,9,2.92,1.6,1.6,0,0,0,8.52,2.8l-0.1-.05L5.76,2a0.55,0.55,0,0,0-.43.06A0.55,0.55,0,0,0,5,2.38L4,5a0.55,0.55,0,1,0,1,.39L5.86,3.18,7.08,3.51C7.05,3.56,7,3.61,7,3.66L5.44,7a1,1,0,0,0-.05.15L3.49,10.36,0.33,11.41a0.81,0.81,0,1,0,1,1.3L4.53,11.6a0.74,0.74,0,0,0,.23-0.27,0.75,0.75,0,0,0,.12-0.13L6,9.31,8,11,5.86,13.43A0.81,0.81,0,0,0,7.07,14.5l2.68-3a0.77,0.77,0,0,0,.16-0.31,0.7,0.7,0,0,0,0-.19,0.69,0.69,0,0,0,0-.09,0.79,0.79,0,0,0-.28-0.59L7.82,8.74a1.44,1.44,0,0,0,.33-0.45L9.35,5.7l0.38,1A0.52,0.52,0,0,0,9.84,7a0.49,0.49,0,0,0,.21.15h0l0.15,0a0.6,0.6,0,0,0,.19,0h0.06A0.58,0.58,0,0,0,10.68,7l2.17-1.84a0.54,0.54,0,0,0-.06-0.77h0Zm0,0" transform="translate(0)"/>
    </g>
    <path class="cls-3" d="M11.57,1.52A1.52,1.52,0,1,1,10,0a1.52,1.52,0,0,1,1.52,1.52h0Zm0,0" transform="translate(0)"/>
  </g>
</svg>
