<svg id="Layer_1" data-name="Layer 1" xmlns="http://www.w3.org/2000/svg" viewBox="0 0 409.6 249.6">
  <title>sedentary</title>
  <g>
    <path d="M384.8,189v65.6h32.8V156.2H40.8V21.8A16.7,16.7,0,0,0,36,10.2,15.22,15.22,0,0,0,24.4,5a15.22,15.22,0,0,0-11.6,5.2A16.72,16.72,0,0,0,8,21.8V254.6H40.8V189h344Zm0,0" transform="translate(-8 -5)"/>
    <path d="M92.4,89A30.24,30.24,0,0,0,114,80.2,28.28,28.28,0,0,0,123.2,59,28.27,28.27,0,0,0,114,37.8,30.24,30.24,0,0,0,92.4,29a28.9,28.9,0,0,0-21.2,8.8A28.9,28.9,0,0,0,62.4,59a28.9,28.9,0,0,0,8.8,21.2A28.9,28.9,0,0,0,92.4,89h0Zm0,0" transform="translate(-8 -5)"/>
    <path d="M417.6,131.4v-40a19.83,19.83,0,0,0-6.8-15.6,32.92,32.92,0,0,0-17.2-7.6L156,45h-1.6a15,15,0,0,0-15.2,15.2v46.4H78.4q-15.2,0-15.2,12.4t15.2,12.4H417.6Zm0,0" transform="translate(-8 -5)"/>
  </g>
</svg>
