<svg id="Layer_1" data-name="Layer 1" xmlns="http://www.w3.org/2000/svg" xmlns:xlink="http://www.w3.org/1999/xlink" viewBox="0 0 758.49 685.36">
  <defs>
    <style>
      .cls-1 {
        fill: none;
      }

      .cls-2 {
        clip-path: url(#clip-path);
      }
    </style>
    <clipPath id="clip-path" transform="translate(0.12)">
      <rect class="cls-1" width="758.88" height="686"/>
    </clipPath>
  </defs>
  <title>very-active</title>
  <g class="cls-2">
    <path d="M31.13,503a38.46,38.46,0,0,0,7.2,76.24,37.42,37.42,0,0,0,7.28-.72L204,548.16a38.73,38.73,0,0,0,22.88-13.84l68-85.76L272.17,437a61.4,61.4,0,0,1-32.48-42.48l-64.16,80.88Zm0,0" transform="translate(0.12)"/>
    <path d="M679.61,84.32A84.32,84.32,0,1,1,595.29,0a84.32,84.32,0,0,1,84.32,84.32h0Zm0,0" transform="translate(0.12)"/>
    <path d="M411.29,63.2c-8.88-9.12-17.12-12.72-26.16-12.72a45.14,45.14,0,0,0-10.08,1.28L230.33,86.08a37.18,37.18,0,0,0,8.56,73.36,35.33,35.33,0,0,0,8.64-1l123.28-29.2c8,8.88,48.08,52.32,55.36,60Q349.74,271,273.29,352.8c-0.8.88-1.52,1.76-2.24,2.64-14.88,19-10.32,48.72,12.08,60l27.12,13.84L439.38,495.2,358.26,626.64a38.54,38.54,0,0,0,12.56,53A38.09,38.09,0,0,0,391,685.36a38.55,38.55,0,0,0,32.8-18.24l103-167a38.5,38.5,0,0,0-15.52-54.56L405.45,391.76l111.28-119,84,71.2a37,37,0,0,0,24,8.8,37.43,37.43,0,0,0,25.36-9.92L746.49,253a37.16,37.16,0,0,0-50.56-54.48L623.77,265.6c-0.08.08-180.88-170-212.48-202.4h0Zm0,0" transform="translate(0.12)"/>
  </g>
</svg>
